HIERARCHY
ROOT hips
{
  OFFSET 0 10.6860622 2.3727825e-15
  CHANNELS 6 Xposition Yposition Zposition Yrotation Xrotation Zrotation
  JOINT leftUpperLeg
  {
    OFFSET 0.6642549969 -0.9402397400000004 0
    CHANNELS 3 Yrotation Xrotation Zrotation
    JOINT leftLowerLeg
    {
      OFFSET 0 -3.997221335632195 0
      CHANNELS 3 Yrotation Xrotation Zrotation
      JOINT leftFoot
      {
        OFFSET -0.13777839790000004 -4.6145792000000005 -0.22186036399999998
        CHANNELS 3 Yrotation Xrotation Zrotation
        JOINT leftToes
        {
          OFFSET -0.03777410834999995 -0.9130806927000008 0.85230013
          CHANNELS 3 Yrotation Xrotation Zrotation
          End Site
          {
            OFFSET -0.03777410834999995 -0.9130806927000008 0.85230013
          }
        }
      }
    }
  }
  JOINT rightUpperLeg
  {
    OFFSET -0.6642778626 -0.9402397400000004 0
    CHANNELS 3 Yrotation Xrotation Zrotation
    JOINT rightLowerLeg
    {
      OFFSET 0 -3.997221452859387 0
      CHANNELS 3 Yrotation Xrotation Zrotation
      JOINT rightFoot
      {
        OFFSET 0.1377926176 -4.6145792000000005 -0.22185782299999995
        CHANNELS 3 Yrotation Xrotation Zrotation
        JOINT rightToes
        {
          OFFSET 0.037780746850000047 -0.9130806927000008 0.85230167
          CHANNELS 3 Yrotation Xrotation Zrotation
          End Site
          {
            OFFSET 0.037780746850000047 -0.9130806927000008 0.85230167
          }
        }
      }
    }
  }
  JOINT spine
  {
    OFFSET 0 0.13988381660000015 0
    CHANNELS 3 Yrotation Xrotation Zrotation
    JOINT chest
    {
      OFFSET 0 0.6191039003973773 0
      CHANNELS 3 Yrotation Xrotation Zrotation
      JOINT upperChest
      {
        OFFSET 0 0.9855186130586943 0
        CHANNELS 3 Yrotation Xrotation Zrotation
        JOINT leftShoulder
        {
          OFFSET 0.1807663869 1.5087829790000005 0
          CHANNELS 3 Yrotation Xrotation Zrotation
          JOINT leftUpperArm
          {
            OFFSET 0.5985063006419806 0 0
            CHANNELS 3 Yrotation Xrotation Zrotation
            JOINT leftLowerArm
            {
              OFFSET 2.2993332369501065 0 0
              CHANNELS 3 Yrotation Xrotation Zrotation
              JOINT leftHand
              {
                OFFSET 2.395047042602395 0 0
                CHANNELS 3 Yrotation Xrotation Zrotation
                JOINT leftIndexProximal
                {
                  OFFSET 0.5766295810000004 0.04556643899499946 0.17265095988184
                  CHANNELS 3 Yrotation Xrotation Zrotation
                  JOINT leftIndexIntermediate
                  {
                    OFFSET 0.2957229000000008 -0.019352197700001517 -0.007932640616999987
                    CHANNELS 3 Yrotation Xrotation Zrotation
                    JOINT leftIndexDistal
                    {
                      OFFSET 0.19008243099999922 -0.012484908149998475 -0.002786250786000012
                      CHANNELS 3 Yrotation Xrotation Zrotation
                      End Site
                      {
                        OFFSET 0.19008243099999922 -0.012484908149998475 -0.002786250786000012
                      }
                    }
                  }
                }
                JOINT leftMiddleProximal
                {
                  OFFSET 0.5834975091000001 0.0524350405149987 0.02204081888183999
                  CHANNELS 3 Yrotation Xrotation Zrotation
                  JOINT leftMiddleIntermediate
                  {
                    OFFSET 0.33880573540000003 -0.019871473270000717 -0.00000971183179999946
                    CHANNELS 3 Yrotation Xrotation Zrotation
                    JOINT leftMiddleDistal
                    {
                      OFFSET 0.20676022730000088 -0.012221336379999448 0.0001471936708000235
                      CHANNELS 3 Yrotation Xrotation Zrotation
                      End Site
                      {
                        OFFSET 0.20676022730000088 -0.012221336379999448 0.0001471936708000235
                      }
                    }
                  }
                }
                JOINT leftLittleProximal
                {
                  OFFSET 0.5344154683999995 -0.012880921405001189 -0.24414037221816004
                  CHANNELS 3 Yrotation Xrotation Zrotation
                  JOINT leftLittleIntermediate
                  {
                    OFFSET 0.21758961730000093 -0.011650919939999227 0.011893592810000034
                    CHANNELS 3 Yrotation Xrotation Zrotation
                    JOINT leftLittleDistal
                    {
                      OFFSET 0.1475273964999999 -0.008152365682999818 0.006001092492999946
                      CHANNELS 3 Yrotation Xrotation Zrotation
                      End Site
                      {
                        OFFSET 0.1475273964999999 -0.008152365682999818 0.006001092492999946
                      }
                    }
                  }
                }
                JOINT leftRingProximal
                {
                  OFFSET 0.5799399463000003 0.026911854694997794 -0.12150566991816003
                  CHANNELS 3 Yrotation Xrotation Zrotation
                  JOINT leftRingIntermediate
                  {
                    OFFSET 0.26167887460000006 -0.013480186499999602 0.010996293000000053
                    CHANNELS 3 Yrotation Xrotation Zrotation
                    JOINT leftRingDistal
                    {
                      OFFSET 0.17667108799999987 -0.008990287899999228 0.0055541023999999065
                      CHANNELS 3 Yrotation Xrotation Zrotation
                      End Site
                      {
                        OFFSET 0.17667108799999987 -0.008990287899999228 0.0055541023999999065
                      }
                    }
                  }
                }
                JOINT leftThumbProximal
                {
                  OFFSET 0.11018806699999972 -0.09448718900500053 0.17047963138184
                  CHANNELS 3 Yrotation Xrotation Zrotation
                  JOINT leftThumbIntermediate
                  {
                    OFFSET 0.31062601459999983 -0.08126270900000132 0.15443142000000007
                    CHANNELS 3 Yrotation Xrotation Zrotation
                    JOINT leftThumbDistal
                    {
                      OFFSET 0.21627175790000086 -0.08833193599999878 0.018771167799999988
                      CHANNELS 3 Yrotation Xrotation Zrotation
                      End Site
                      {
                        OFFSET 0.21627175790000086 -0.08833193599999878 0.018771167799999988
                      }
                    }
                  }
                }
              }
            }
          }
        }
        JOINT neck
        {
          OFFSET 0 1.5463305265074576 0
          CHANNELS 3 Yrotation Xrotation Zrotation
          JOINT head
          {
            OFFSET 0 0.8456443600000344 0
            CHANNELS 3 Yrotation Xrotation Zrotation
            JOINT leftEye
            {
              OFFSET 0.30408573140000006 0.5104519199999995 0.1276382305
              CHANNELS 3 Yrotation Xrotation Zrotation
              End Site
              {
                OFFSET 0.30408573140000006 0.5104519199999995 0.1276382305
              }
            }
            JOINT rightEye
            {
              OFFSET -0.30409491089999996 0.5104519199999995 0.1276379445
              CHANNELS 3 Yrotation Xrotation Zrotation
              End Site
              {
                OFFSET -0.30409491089999996 0.5104519199999995 0.1276379445
              }
            }
            JOINT jaw
            {
              OFFSET -3.155239131000001e-7 -0.11984121820000082 0.60178107
              CHANNELS 3 Yrotation Xrotation Zrotation
              End Site
              {
                OFFSET -3.155239131000001e-7 -0.11984121820000082 0.60178107
              }
            }
          }
        }
        JOINT rightShoulder
        {
          OFFSET -0.1807303465 1.5087829790000005 0
          CHANNELS 3 Yrotation Xrotation Zrotation
          JOINT rightUpperArm
          {
            OFFSET -0.5985063796536958 0 0
            CHANNELS 3 Yrotation Xrotation Zrotation
            JOINT rightLowerArm
            {
              OFFSET -2.2993322059002854 0 0
              CHANNELS 3 Yrotation Xrotation Zrotation
              JOINT rightHand
              {
                OFFSET -2.395045314457259 0 0
                CHANNELS 3 Yrotation Xrotation Zrotation
                JOINT rightIndexProximal
                {
                  OFFSET -0.5764487688300002 0.0441371204405987 0.17361932004999997
                  CHANNELS 3 Yrotation Xrotation Zrotation
                  JOINT rightIndexIntermediate
                  {
                    OFFSET -0.29573011380000047 -0.01934826376999843 -0.007698921482999974
                    CHANNELS 3 Yrotation Xrotation Zrotation
                    JOINT rightIndexDistal
                    {
                      OFFSET -0.19008373999999884 -0.012503266380000655 -0.0026365778999999897
                      CHANNELS 3 Yrotation Xrotation Zrotation
                      End Site
                      {
                        OFFSET -0.19008373999999884 -0.012503266380000655 -0.0026365778999999897
                      }
                    }
                  }
                }
                JOINT rightMiddleProximal
                {
                  OFFSET -0.5834852037300005 0.05211639405060153 0.02307162440000001
                  CHANNELS 3 Yrotation Xrotation Zrotation
                  JOINT rightMiddleIntermediate
                  {
                    OFFSET -0.33880114510000003 -0.019952774050000954 0.0002455003561999819
                    CHANNELS 3 Yrotation Xrotation Zrotation
                    JOINT rightMiddleDistal
                    {
                      OFFSET -0.20675694929999955 -0.012273788999999091 0.00030209124000002766
                      CHANNELS 3 Yrotation Xrotation Zrotation
                      End Site
                      {
                        OFFSET -0.20675694929999955 -0.012273788999999091 0.00030209124000002766
                      }
                    }
                  }
                }
                JOINT rightLittleProximal
                {
                  OFFSET -0.5346811737299992 -0.011214256288399227 -0.24363941305000003
                  CHANNELS 3 Yrotation Xrotation Zrotation
                  JOINT rightLittleIntermediate
                  {
                    OFFSET -0.21757715980000092 -0.011771559690000988 0.01201554387
                    CHANNELS 3 Yrotation Xrotation Zrotation
                    JOINT rightLittleDistal
                    {
                      OFFSET -0.1475201849000004 -0.00822055339600003 0.006082065407000015
                      CHANNELS 3 Yrotation Xrotation Zrotation
                      End Site
                      {
                        OFFSET -0.1475201849000004 -0.00822055339600003 0.006082065407000015
                      }
                    }
                  }
                }
                JOINT rightRingProximal
                {
                  OFFSET -0.5800810755299999 0.027657985680600072 -0.12066365025000003
                  CHANNELS 3 Yrotation Xrotation Zrotation
                  JOINT rightRingIntermediate
                  {
                    OFFSET -0.26166445029999974 -0.013623118409999302 0.011164098990000045
                    CHANNELS 3 Yrotation Xrotation Zrotation
                    JOINT rightRingDistal
                    {
                      OFFSET -0.17666387530000027 -0.009072900100000503 0.005668185599999959
                      CHANNELS 3 Yrotation Xrotation Zrotation
                      End Site
                      {
                        OFFSET -0.17666387530000027 -0.009072900100000503 0.005668185599999959
                      }
                    }
                  }
                }
                JOINT rightThumbProximal
                {
                  OFFSET -0.10997596379000074 -0.09577489355940072 0.16989765924999997
                  CHANNELS 3 Yrotation Xrotation Zrotation
                  JOINT rightThumbIntermediate
                  {
                    OFFSET -0.31036620999999986 -0.08229339117999834 0.15440884469999996
                    CHANNELS 3 Yrotation Xrotation Zrotation
                    JOINT rightThumbDistal
                    {
                      OFFSET -0.21631306399999906 -0.08825326400000111 0.018656797720000014
                      CHANNELS 3 Yrotation Xrotation Zrotation
                      End Site
                      {
                        OFFSET -0.21631306399999906 -0.08825326400000111 0.018656797720000014
                      }
                    }
                  }
                }
              }
            }
          }
        }
      }
    }
  }
}
MOTION
Frames: 9
Frame Time: 0.03333333333333333
-6.442183991987676 -9.53630698521407 1.8775955698677194 -178.05436124120854 -87.99045514658239 -89.95006481508887 -1.23447105971765 0.5696665857627076 -0.24324397444263868 1.049603732560243 -6.837436130526649 4.345828713931001 27.30692292322389 19.566851670075696 -13.426640077783745 0 0 0 -61.91227025211079 -51.203818682478705 9.455461626417229 91.3474672468558 69.54045248207898 48.94183980624321 -20.29679712086495 19.86598217053747 6.291286542910055 0 0 0 -0.5022107727333042 2.078876048332245 -2.56031795489718 0.12608099272604714 36.40681934384175 -0.7714818184482268 0 0 0 -40.872035619607274 13.468740377476665 -6.316356848086359 34.60613860360717 21.62491212052731 -28.39145089063518 -82.7713674908876 -5.808545858489008 31.00304150990026 18.9387886087669 2.3214646686808362 -3.6991782537313673 0 0 0 0 0 0 0 0 0 0 0 0 0 0 0 0 0 0 0 0 0 0 0 0 0 0 0 0 0 0 0 0 0 0 0 0 0 0 0 0 0 0 0 0 0 0 -15.473028613729653 0 0 -39.00178356298357 0 0 0 0 0 0 0 0 0 0 27.19405273863679 17.781800941650364 15.176090851254438 -39.26509652978019 24.4019622215097 39.57550558909648 79.74126840935467 -1.0036648115029645 -4.121801633919199 3.82787193163401 -2.181688743793522 15.674005979657556 0 0 0 0 0 0 0 0 0 0 0 0 0 0 0 0 0 0 0 0 0 0 0 0 0 0 0 0 0 0 0 0 0 0 0 0 0 0 0 0 0 0 0 0 0
-6.442183991987676 -9.53630698521407 1.8775955698677194 -178.05436124120854 -87.99045514658239 -89.95006481508887 -1.23447105971765 0.5696665857627076 -0.24324397444263868 1.049603732560243 -6.837436130526649 4.345828713931001 27.30692292322389 19.566851670075696 -13.426640077783745 0 0 0 -61.41944141191385 -51.0777656632422 9.267301031602793 91.3474672468558 69.54045248207898 48.94183980624321 -20.513881540600753 19.882069142020065 6.564570396855233 0 0 0 -0.5022107727333042 2.078876048332245 -2.56031795489718 0.12770831131307595 36.77397402901809 -0.7684717712618212 0 0 0 -40.89894386012288 13.495039885499114 -6.081422965268769 34.6944427419218 21.682870231301813 -28.48070547123913 -83.28019303617936 -5.519820948518099 31.439697597796137 18.872917621958276 2.107591609588201 -3.591147267358439 0 0 0 0 0 0 0 0 0 0 0 0 0 0 0 0 0 0 0 0 0 0 0 0 0 0 0 0 0 0 0 0 0 0 0 0 0 0 0 0 0 0 0 0 0 0 -15.473028613729653 0 0 -39.00178356298357 0 0 0 0 0 0 0 0 0 0 27.33645715094874 17.711698156092112 15.141395480852665 -39.26509652978019 24.4019622215097 39.57550558909648 79.74126840935467 -1.0036648115029645 -4.121801633919199 3.9500956234147777 -2.3389293897880523 15.460124995451167 0 0 0 0 0 0 0 0 0 0 0 0 0 0 0 0 0 0 0 0 0 0 0 0 0 0 0 0 0 0 0 0 0 0 0 0 0 0 0 0 0 0 0 0 0
-6.442183991987676 -9.53630698521407 1.8775955698677194 -178.05436124120854 -87.99045514658239 -89.95006481508887 -1.23447105971765 0.5696665857627076 -0.24324397444263868 1.049603732560243 -6.837436130526649 4.345828713931001 27.30692292322389 19.566851670075696 -13.426640077783745 0 0 0 -60.92861220325819 -50.95070530957236 9.081379980196276 91.3474672468558 69.54045248207898 48.94183980624321 -20.73090550891455 19.899129289711276 6.837816772200206 0 0 0 -0.5022107727333042 2.078876048332245 -2.56031795489718 0.12936769339015314 37.14112627692843 -0.765434091813289 0 0 0 -40.925742120979265 13.521445908205566 -5.8464764716177084 34.78268152127455 21.740954607436 -28.56990038446599 -83.78655145041667 -5.227258079577655 31.873553978141363 18.806650530868747 1.8938431742483566 -3.4828846810708485 0 0 0 0 0 0 0 0 0 0 0 0 0 0 0 0 0 0 0 0 0 0 0 0 0 0 0 0 0 0 0 0 0 0 0 0 0 0 0 0 0 0 0 0 0 0 -15.473028613729653 0 0 -39.00178356298357 0 0 0 0 0 0 0 0 0 0 27.478851199665716 17.641676507095394 15.106530653395481 -39.26509652978019 24.4019622215097 39.57550558909648 79.74126840935467 -1.0036648115029645 -4.121801633919199 4.0729206437995735 -2.4957127280957727 15.245885366814074 0 0 0 0 0 0 0 0 0 0 0 0 0 0 0 0 0 0 0 0 0 0 0 0 0 0 0 0 0 0 0 0 0 0 0 0 0 0 0 0 0 0 0 0 0
-6.442183991987676 -9.53630698521407 1.8775955698677194 -178.05441416124788 -87.99045514658239 -89.94996572268053 -1.23447105971765 0.5696665857627076 -0.24324397444263868 1.049603732560243 -6.837436130526649 4.345828713931001 27.30692292322389 19.566851670075696 -13.426640077783745 0 0 0 -59.95246726800245 -50.6934960033192 8.716074046264534 91.3474672468558 69.54045248207898 48.94183980624321 -21.165000692643762 19.93619400994096 7.384486304182737 0 0 0 -0.5022107727333042 2.078876048332245 -2.56031795489718 0.13278463897717827 37.87575686088956 -0.7592714947319941 0 0 0 -40.979036943546895 13.574588201652588 -5.376453351387181 34.95898718743665 21.857501168343827 -28.74811204054767 -84.7934967394893 -4.629788083837107 32.73423503276888 18.672891879608567 1.4666338981650306 -3.265607636551421 0 0 0 0 0 0 0 0 0 0 0 0 0 0 0 0 0 0 0 0 0 0 0 0 0 0 0 0 0 0 0 0 0 0 0 0 0 0 0 0 0 0 0 0 0 0 -15.473028613729653 0 0 -39.00178356298357 0 0 0 0 0 0 0 0 0 0 27.76363106463574 17.50186866109306 15.03628651177096 -39.26509652978019 24.4019622215097 39.57550558909648 79.74126840935467 -1.0036648115029645 -4.121801633919199 4.320443703322282 -2.807982473145486 14.816196708221156 0 0 0 0 0 0 0 0 0 0 0 0 0 0 0 0 0 0 0 0 0 0 0 0 0 0 0 0 0 0 0 0 0 0 0 0 0 0 0 0 0 0 0 0 0
-6.442183991987676 -9.53630698521407 1.8775955698677194 -178.05438769331462 -87.99045514658239 -89.9500152655532 -1.23447105971765 0.5696665857627076 -0.24324397444263868 1.049603732560243 -6.837436130526649 4.345828713931001 27.30692292322389 19.566851670075696 -13.426640077783745 0 0 0 -59.46715905574146 -50.56336805817117 8.536689766749346 91.3474672468558 69.54045248207898 48.94183980624321 -21.38203404082999 19.95619201021031 7.6578750229161425 0 0 0 -0.5022107727333042 2.078876048332245 -2.56031795489718 0.1345455151588781 38.243208057375284 -0.7561438530319325 0 0 0 -41.005525947386886 13.60132367924336 -5.141381385213598 35.04705537640693 21.91597482475766 -28.837138791789165 -85.2939465859198 -4.3250290742500805 33.16090554680535 18.60540559976385 1.2531840308132776 -3.1565913312727876 0 0 0 0 0 0 0 0 0 0 0 0 0 0 0 0 0 0 0 0 0 0 0 0 0 0 0 0 0 0 0 0 0 0 0 0 0 0 0 0 0 0 0 0 0 0 -15.473028613729653 0 0 -39.00178356298357 0 0 0 0 0 0 0 0 0 0 27.906020371438657 17.432085653829862 15.000908893452731 -39.26509652978019 24.4019622215097 39.57550558909648 79.74126840935467 -1.0036648115029645 -4.121801633919199 4.445135650245163 -2.9634546285613284 14.600753683070334 0 0 0 0 0 0 0 0 0 0 0 0 0 0 0 0 0 0 0 0 0 0 0 0 0 0 0 0 0 0 0 0 0 0 0 0 0 0 0 0 0 0 0 0 0
-6.442183991987676 -9.53630698521407 1.8775955698677194 -178.05436124120854 -87.99045514658239 -89.95006481508887 -1.23447105971765 0.5696665857627076 -0.24324397444263868 1.049603732560243 -6.837436130526649 4.345828713931001 27.30692292322389 19.566851670075696 -13.426640077783745 0 0 0 -58.98383448023012 -50.43228491781198 8.359537946293491 91.3474672468558 69.54045248207898 48.94183980624321 -21.598991939117287 19.977162751070992 7.931217704887487 0 0 0 -0.5022107727333042 2.078876048332245 -2.56031795489718 0.13634104643763384 38.61065983769004 -0.7529856593221692 0 0 0 -41.031905420251455 13.628164960975992 -4.906295670898647 35.13505986453997 21.97457377238759 -28.92610173422111 -85.7919118205616 -4.016575399562481 33.58472419686132 18.537518145144826 1.0398630999431806 -3.0473314590000156 0 0 0 0 0 0 0 0 0 0 0 0 0 0 0 0 0 0 0 0 0 0 0 0 0 0 0 0 0 0 0 0 0 0 0 0 0 0 0 0 0 0 0 0 0 0 -15.473028613729653 0 0 -39.00178356298357 0 0 0 0 0 0 0 0 0 0 28.04839972275925 17.362386573479007 14.965365325249886 -39.26509652978019 24.4019622215097 39.57550558909648 79.74126840935467 -1.0036648115029645 -4.121801633919199 4.570430477420514 -3.118457192532686 14.384942776355649 0 0 0 0 0 0 0 0 0 0 0 0 0 0 0 0 0 0 0 0 0 0 0 0 0 0 0 0 0 0 0 0 0 0 0 0 0 0 0 0 0 0 0 0 0
-6.442183991987676 -9.53630698521407 1.8775955698677194 -178.05436124120854 -87.99045514658239 -89.95006481508887 -1.23447105971765 0.5696665857627076 -0.24324397444263868 1.049603732560243 -6.837436130526649 4.345828713931001 27.30692292322389 19.566851670075696 -13.426640077783745 0 0 0 -58.02281948856902 -50.167217962275785 8.011817825648697 91.3474672468558 69.54045248207898 48.94183980624321 -22.032823922460512 20.022042211311792 8.477941880807881 0 0 0 -0.5022107727333042 2.078876048332245 -2.56031795489718 0.14003763413779638 39.345767661069516 -0.7465764049984378 0 0 0 -41.08433816084687 13.682170377070243 -4.4360248320405855 35.31090177499259 22.09216867936813 -29.103861279806736 -86.78140355365852 -3.3880840185841303 34.42465218779092 18.400507852730744 0.613555880118378 -2.8280404675709416 0 0 0 0 0 0 0 0 0 0 0 0 0 0 0 0 0 0 0 0 0 0 0 0 0 0 0 0 0 0 0 0 0 0 0 0 0 0 0 0 0 0 0 0 0 0 -15.473028613729653 0 0 -39.00178356298357 0 0 0 0 0 0 0 0 0 0 28.33315168579094 17.223232247802184 14.893765171236803 -39.26509652978019 24.4019622215097 39.57550558909648 79.74126840935467 -1.0036648115029645 -4.121801633919199 4.822873549986449 -3.427092964216673 13.952118441273555 0 0 0 0 0 0 0 0 0 0 0 0 0 0 0 0 0 0 0 0 0 0 0 0 0 0 0 0 0 0 0 0 0 0 0 0 0 0 0 0 0 0 0 0 0
-6.442183991987676 -9.53630698521407 1.8775955698677194 -178.05433841010907 -87.99045514658239 -89.95011019133051 -1.23447105971765 0.5696665857627076 -0.24324397444263868 1.049603732560243 -6.837436130526649 4.345828713931001 27.30692292322389 19.566851670075696 -13.426640077783745 0 0 0 -57.54516995207467 -50.033275393279276 7.841266018401061 91.3474672468558 69.54045248207898 48.94183980624321 -22.24966554420078 20.045946322446543 8.75129307930986 0 0 0 -0.5022107727333042 2.078876048332245 -2.56031795489718 0.14194216613307445 39.71340314409073 -0.7433212386904108 0 0 0 -41.110388821269545 13.709329324515338 -4.200845426964448 35.39873324128888 22.151154030981104 -29.192652425735048 -87.27279431659161 -3.0682079117979137 34.8406162535223 18.331393285462607 0.4005800644416053 -2.7180093108043923 0 0 0 0 0 0 0 0 0 0 0 0 0 0 0 0 0 0 0 0 0 0 0 0 0 0 0 0 0 0 0 0 0 0 0 0 0 0 0 0 0 0 0 0 0 0 -15.473028613729653 0 0 -39.00178356298357 0 0 0 0 0 0 0 0 0 0 28.475516454614805 17.15377840023718 14.857711183601307 -39.26509652978019 24.4019622215097 39.57550558909648 79.74126840935467 -1.0036648115029645 -4.121801633919199 4.95001693760755 -3.5807143025522077 13.735118694962763 0 0 0 0 0 0 0 0 0 0 0 0 0 0 0 0 0 0 0 0 0 0 0 0 0 0 0 0 0 0 0 0 0 0 0 0 0 0 0 0 0 0 0 0 0
-6.442183991987676 -9.53630698521407 1.8775955698677194 -178.0543155621131 -87.99045514658239 -89.95015556527493 -1.23447105971765 0.5696665857627076 -0.24324397444263868 1.049603732560243 -6.837436130526649 4.345828713931001 27.30692292322389 19.566851670075696 -13.426640077783745 0 0 0 -57.069471425041264 -49.898427653977514 7.6729288714563015 91.3474672468558 69.54045248207898 48.94183980624321 -22.466416376859144 20.070821221132427 9.024587476883829 0 0 0 -0.5022107727333042 2.078876048332245 -2.56031795489718 0.1438842334777889 40.08103568155621 -0.7400325775579892 0 0 0 -41.1363277189153 13.736593366653384 -3.9656516810688553 35.48650147721602 22.21026555566625 -29.281384361957027 -87.76170719290374 -2.7447907298566583 35.25370266052365 18.2618687258685 0.18773751680448117 -2.607723182851265 0 0 0 0 0 0 0 0 0 0 0 0 0 0 0 0 0 0 0 0 0 0 0 0 0 0 0 0 0 0 0 0 0 0 0 0 0 0 0 0 0 0 0 0 0 0 -15.473028613729653 0 0 -39.00178356298357 0 0 0 0 0 0 0 0 0 0 28.617873355883884 17.08440948064296 14.821491115070378 -39.26509652978019 24.4019622215097 39.57550558909648 79.74126840935467 -1.0036648115029645 -4.121801633919199 5.077764279137027 -3.7338534133911785 13.517740276566393 0 0 0 0 0 0 0 0 0 0 0 0 0 0 0 0 0 0 0 0 0 0 0 0 0 0 0 0 0 0 0 0 0 0 0 0 0 0 0 0 0 0 0 0 0
